<svg width="90" height="90" viewBox="0 0 90 90" fill="none" xmlns="http://www.w3.org/2000/svg">
<mask id="mask0_157_14" style="mask-type:alpha" maskUnits="userSpaceOnUse" x="0" y="0" width="90" height="90">
<rect width="90" height="90" fill="#D9D9D9"/>
</mask>
<g mask="url(#mask0_157_14)">
<path fill-rule="evenodd" clip-rule="evenodd" d="M37.591 16.5622C35.747 17.0442 35.591 18.4602 36.841 23.3732C37.554 26.1772 37.612 26.0922 37.723 22.0842L37.841 17.7952L46.59 18.0842L55.339 18.3732L55.109 22.3732C54.931 25.4612 55.086 25.9172 55.79 24.3732C57.261 21.1432 56.992 17.1452 55.259 16.4802C53.48 15.7972 40.284 15.8592 37.591 16.5622ZM35.841 29.7682C33.391 30.4492 33.152 31.1941 33.806 36.1231C34.027 37.7892 34.265 37.4641 34.723 34.8731L35.341 31.3732H46.841H58.341L58.153 36.3731L57.966 41.3731L59.041 36.4601C59.994 32.1111 59.907 31.3952 58.288 30.2102C56.333 28.7812 40.51 28.4692 35.841 29.7682ZM33.841 43.7201C28.136 44.6141 26.513 45.6232 27.403 47.7242C27.787 48.6312 28.709 51.8481 29.452 54.8731L30.804 60.3731L30.324 54.7081C30.06 51.5921 29.595 48.3962 29.292 47.6062C28.863 46.4892 30.122 46.0241 34.937 45.5211C42.716 44.7081 56.171 44.7022 61.055 45.5092L64.768 46.1231L64.319 50.7481C63.977 54.2602 64.082 54.7711 64.755 52.8731C66.257 48.6362 65.985 45.1472 64.091 44.3632C61.632 43.3452 39.264 42.8701 33.841 43.7201ZM10.947 58.7742C7.25402 62.2242 7.11502 63.2512 10.064 65.3162C13.256 67.5522 28.64 67.3442 48.855 64.7911C73.97 61.6191 78.869 62.9202 81.169 73.3731C81.459 74.6902 81.649 74.3391 81.725 72.3461C82.078 63.1461 71.659 60.0641 49.841 62.9151C27.072 65.8901 13.45 66.1821 9.75602 63.7721C8.62702 63.0351 9.09502 62.1451 12.076 59.3611C14.131 57.4431 15.416 55.8731 14.932 55.8731C14.448 55.8731 12.655 57.1791 10.947 58.7742Z" fill="black"/>
</g>
</svg>
