<svg width="90" height="90" viewBox="0 0 90 90" fill="none" xmlns="http://www.w3.org/2000/svg">
<mask id="mask0_148_9" style="mask-type:alpha" maskUnits="userSpaceOnUse" x="0" y="0" width="90" height="90">
<rect width="90" height="90" fill="#D9D9D9"/>
</mask>
<g mask="url(#mask0_148_9)">
<path d="M1 78.669C6.7987 78.0586 19.861 77.3872 25.7208 79.5846V66.7663H23.8896L33.961 58.526L52.2727 54.8637L45.8636 63.1039L33.0455 65.8507M33.0455 65.8507C32.1299 67.6819 32.1299 69.1468 32.1299 75.0065H33.961C33.961 72.565 33.961 67.6819 33.0455 65.8507ZM33.0455 65.8507L44.9481 64.9351V80.5L52.2727 77.7533V51.2013H50.4416V49.3702L53.1883 48.4546V42.0455H51.3571V40.2143L55.9351 39.2987L57.7662 20.9871L60.513 39.2987L64.1753 40.2143V42.0455L59.5974 41.1299L63.2597 43.8767V48.4546L66.0065 49.3702L66.9221 51.2013L58.6818 50.2858L65.0909 52.1169V77.7533H63.2597V69.513C62.9545 67.3767 62.161 64.3858 61.4286 69.513V77.7533L58.6818 78.669L54.1039 77.7533L58.6818 80.5C65.0909 78.6689 80.1065 75.9223 88.8961 79.5846" stroke="black" stroke-width="0.6"/>
<path d="M36.708 75.0066C36.708 71.3442 36.708 68.5975 37.6236 65.8507C39.0884 68.0481 39.4546 72.8702 39.4548 75.0066H36.708Z" fill="black" stroke="black" stroke-width="0.6"/>
<path d="M59.2317 20.6207C59.2317 21.4298 58.5758 22.0856 57.7668 22.0856C56.9577 22.0856 56.3018 21.4298 56.3018 20.6207C56.3018 19.8116 56.9577 19.1558 57.7668 19.1558C58.5758 19.1558 59.2317 19.8116 59.2317 20.6207Z" fill="black"/>
<path d="M57.7661 10V20.0714" stroke="black" stroke-width="0.4"/>
<path d="M54.104 13.6624L61.4287 13.6624" stroke="black" stroke-width="0.4"/>
</g>
</svg>
