<svg width="122" height="160" viewBox="0 0 122 160" fill="none" xmlns="http://www.w3.org/2000/svg">
<path d="M63.4669 76.7376C63.4669 79.9954 64.7942 83.1325 67.2074 85.3044L67.5694 85.5457H50.677L51.039 85.3044C53.4522 83.1325 54.7794 79.9954 54.7794 76.7376V40.2984C49.8324 46.9347 41.9895 50.5545 33.664 49.9512C25.2179 49.3479 17.1337 53.5709 12.7899 60.9312V76.7376C12.7899 79.9954 14.1172 83.1325 16.5304 85.3044L16.8923 85.5457H0L0.241319 85.3044C2.65451 83.1325 3.98177 79.9954 3.98177 76.7376V9.89219C3.98177 6.63438 2.65451 3.49723 0.241319 1.32536L0 0.963379H16.8923L16.5304 1.32536C14.1172 3.49723 12.7899 6.63438 12.7899 9.89219V57.9147C17.6163 51.2784 25.5798 47.6586 33.7847 48.2619C42.3515 48.8652 50.4357 44.5215 54.7794 37.2819V9.89219C54.7794 6.63438 53.4522 3.49723 51.039 1.32536L50.677 0.963379H67.5694L67.2074 1.32536C64.7942 3.49723 63.4669 6.63438 63.4669 9.89219V76.7376Z" fill="black"/>
<path d="M109.646 124.076C112.904 124.076 116.041 122.749 118.213 120.336L121.833 116.475V125.765H66.5708L66.8121 125.524C69.2253 123.352 70.5526 120.215 70.5526 116.957V50.1119C70.5526 46.8541 69.2253 43.717 66.8121 41.5451L66.5708 41.1831H121.833V50.5946L118.213 46.7334C116.041 44.3203 112.904 42.993 109.646 42.993H79.3607V82.69H92.2713C95.5291 82.69 98.6662 81.2421 100.838 78.9496L104.458 75.0884V91.9808L100.838 88.1197C98.6662 85.7065 95.5291 84.3792 92.2713 84.3792H79.3607V124.076H109.646Z" fill="black"/>
<path d="M94.7484 152.52C94.8771 152.568 94.9575 152.657 94.9897 152.785C95.0379 152.898 95.0379 153.019 94.9897 153.147C94.507 154.273 94.0003 155.311 93.4694 156.26C92.9385 157.21 92.3915 157.966 91.8284 158.529C91.2975 159.092 90.8068 159.47 90.3564 159.663C89.9059 159.856 89.5117 159.953 89.1739 159.953C89.0935 159.953 89.013 159.953 88.9326 159.953C88.8521 159.936 88.7717 159.92 88.6913 159.904C88.3695 159.824 88.0236 159.631 87.6536 159.325C87.2996 159.019 86.994 158.48 86.7366 157.708C86.3344 156.518 86.2057 154.957 86.3505 153.027C86.3987 151.997 86.7205 151.378 87.3157 151.168C87.7018 151.04 88.0477 151.144 88.3534 151.482C88.5143 151.675 88.643 151.941 88.7395 152.279C88.836 152.616 88.8682 153.035 88.836 153.533C88.8039 154.032 88.6993 154.611 88.5223 155.271C88.3454 155.931 88.0638 156.663 87.6777 157.467C87.7742 157.773 87.919 158.078 88.1121 158.384C88.3212 158.69 88.5867 158.883 88.9084 158.963C89.5359 159.108 90.284 158.746 91.1527 157.877C91.6675 157.362 92.1663 156.646 92.6489 155.729C93.1476 154.812 93.6303 153.823 94.0968 152.761C94.1612 152.632 94.2496 152.544 94.3623 152.496C94.491 152.447 94.6197 152.456 94.7484 152.52ZM87.3157 155.802C87.6214 154.981 87.7984 154.282 87.8466 153.702C87.8949 153.123 87.8627 152.681 87.7501 152.375C87.7179 152.295 87.6858 152.238 87.6536 152.206C87.6375 152.158 87.6214 152.126 87.6053 152.11C87.5731 152.142 87.5168 152.238 87.4364 152.399C87.372 152.544 87.3238 152.777 87.2916 153.099C87.2594 153.598 87.2433 154.072 87.2433 154.523C87.2594 154.973 87.2836 155.4 87.3157 155.802Z" fill="#1C1B1B"/>
<path d="M88.1996 152.64C88.2961 152.737 88.3364 152.858 88.3203 153.002C88.3203 153.131 88.272 153.236 88.1755 153.316C87.7089 153.734 87.1941 154.072 86.631 154.33C86.084 154.587 85.529 154.716 84.9659 154.716C84.5476 154.716 84.1857 154.684 83.88 154.619C83.7996 155.214 83.6789 155.81 83.518 156.405C83.2445 157.354 82.9067 158.159 82.5045 158.818C82.0218 159.574 81.5231 159.952 81.0083 159.952C80.9279 159.952 80.8716 159.944 80.8394 159.928C80.2119 159.848 79.7454 159.236 79.4397 158.094C79.2788 157.547 79.1501 156.823 79.0536 155.922C78.9571 155.021 78.8847 154.032 78.8364 152.954C78.8364 152.825 78.8766 152.713 78.9571 152.616C79.0536 152.52 79.1662 152.471 79.2949 152.471C79.4236 152.455 79.5363 152.496 79.6328 152.592C79.7454 152.689 79.8017 152.801 79.8017 152.93C79.85 153.96 79.9143 154.909 79.9948 155.778C80.0913 156.63 80.2119 157.314 80.3567 157.829C80.4372 158.102 80.5096 158.319 80.5739 158.48C80.6544 158.625 80.7268 158.738 80.7911 158.818C80.8555 158.899 80.9198 158.955 80.9842 158.987C81.0163 158.987 81.0968 158.947 81.2255 158.866C81.3542 158.786 81.507 158.601 81.684 158.311C81.861 158.038 82.0218 157.716 82.1666 157.346C82.3275 156.96 82.4723 156.558 82.601 156.139C82.6814 155.818 82.7458 155.52 82.7941 155.247C82.8584 154.957 82.9067 154.684 82.9389 154.426C82.4884 154.297 82.1666 154.177 81.9736 154.064C81.4909 153.807 81.1933 153.461 81.0807 153.026C80.9842 152.592 81.0163 152.198 81.1772 151.844C81.3542 151.506 81.5955 151.281 81.9012 151.168C82.2229 151.04 82.5527 151.056 82.8906 151.217C83.0997 151.313 83.3169 151.522 83.5421 151.844C83.7835 152.15 83.9202 152.656 83.9524 153.364V153.654C84.0811 153.686 84.2018 153.71 84.3144 153.726C84.4431 153.726 84.5718 153.734 84.7005 153.75C85.1188 153.767 85.5853 153.678 86.1001 153.485C86.631 153.292 87.1056 153.002 87.5239 152.616C87.6204 152.52 87.7331 152.479 87.8618 152.496C88.0066 152.496 88.1192 152.544 88.1996 152.64ZM82.4321 153.22C82.4964 153.252 82.5688 153.292 82.6493 153.34C82.7458 153.372 82.8584 153.405 82.9871 153.437C82.9549 152.664 82.7941 152.214 82.5045 152.085C82.4723 152.085 82.4401 152.085 82.408 152.085C82.3919 152.069 82.3677 152.061 82.3356 152.061C82.2229 152.061 82.1264 152.126 82.046 152.254C81.9977 152.383 81.9897 152.544 82.0218 152.737C82.054 152.93 82.1908 153.091 82.4321 153.22Z" fill="#1C1B1B"/>
<path d="M80.7526 152.616C80.8491 152.712 80.8894 152.833 80.8733 152.978C80.8733 153.107 80.825 153.211 80.7285 153.292C80.455 153.549 80.1574 153.766 79.8356 153.943C79.5138 154.12 79.176 154.273 78.8221 154.402C78.4842 154.514 78.1464 154.595 77.8085 154.643C77.4707 154.691 77.1489 154.715 76.8432 154.715V154.764C76.8432 155.375 76.7789 155.978 76.6502 156.574C76.5215 157.153 76.3445 157.676 76.1193 158.142C75.8297 158.721 75.4838 159.172 75.0816 159.493C74.6794 159.799 74.245 159.952 73.7785 159.952C72.781 159.952 72.0008 159.469 71.4377 158.504C71.2286 158.134 71.0677 157.716 70.9551 157.249C70.8424 156.783 70.7861 156.292 70.7861 155.777C70.7861 155.262 70.8585 154.723 71.0033 154.16C71.1481 153.597 71.3331 153.123 71.5584 152.737C71.6227 152.608 71.7112 152.527 71.8238 152.495C71.9525 152.463 72.0812 152.479 72.2099 152.543C72.3386 152.624 72.4191 152.728 72.4512 152.857C72.4834 152.97 72.4673 153.09 72.403 153.219C72.2099 153.541 72.0571 153.919 71.9445 154.353C71.8479 154.772 71.7916 155.206 71.7755 155.657C71.7755 156.091 71.8158 156.517 71.8962 156.935C71.9766 157.354 72.1053 157.716 72.2823 158.021C72.6684 158.665 73.1671 158.987 73.7785 158.987C73.9555 158.987 74.1163 158.946 74.2611 158.866C74.422 158.77 74.5668 158.657 74.6955 158.528C74.8242 158.399 74.9288 158.263 75.0092 158.118C75.1057 157.973 75.1862 157.844 75.2505 157.732C75.4436 157.314 75.5964 156.847 75.709 156.332C75.8217 155.801 75.878 155.278 75.878 154.764V154.619C75.4114 154.554 74.9851 154.474 74.599 154.378C74.229 154.281 73.9474 154.176 73.7544 154.064C73.3039 153.822 73.0143 153.541 72.8856 153.219C72.773 152.897 72.7569 152.6 72.8373 152.326C72.9017 152.005 73.0948 151.723 73.4165 151.482C73.7544 151.273 74.1163 151.168 74.5024 151.168C74.8886 151.168 75.2344 151.273 75.5401 151.482C75.8619 151.691 76.1273 151.98 76.3365 152.35C76.5456 152.72 76.6904 153.179 76.7709 153.726C76.803 153.726 76.8191 153.734 76.8191 153.75C76.8352 153.75 76.8513 153.75 76.8674 153.75C77.3822 153.766 77.9372 153.678 78.5325 153.485C79.1438 153.275 79.6586 152.978 80.0769 152.592C80.1734 152.495 80.2861 152.455 80.4148 152.471C80.5596 152.471 80.6722 152.519 80.7526 152.616ZM74.2129 153.219C74.3416 153.284 74.5427 153.356 74.8162 153.436C75.0897 153.501 75.4114 153.565 75.7814 153.629C75.7171 153.324 75.6206 153.05 75.4919 152.809C75.2505 152.358 74.9207 152.133 74.5024 152.133C74.2772 152.133 74.1003 152.182 73.9715 152.278C73.8589 152.358 73.7865 152.455 73.7544 152.568C73.7061 152.793 73.8589 153.01 74.2129 153.219Z" fill="#1C1B1B"/>
<path d="M67.9534 159.977C67.8086 159.977 67.6638 159.953 67.519 159.905C66.4733 159.647 65.7735 158.384 65.4195 156.116C65.0495 153.687 65.0334 150.171 65.3713 145.57C65.4034 145.088 65.4517 144.701 65.5161 144.412C65.5965 144.106 65.6769 143.873 65.7574 143.712C65.8539 143.535 65.9504 143.414 66.047 143.35C66.1435 143.27 66.232 143.213 66.3124 143.181C66.3768 143.149 66.4813 143.141 66.6261 143.157C66.787 143.173 66.9559 143.278 67.1329 143.471C67.3742 143.76 67.5512 144.227 67.6638 144.87C67.7925 145.514 67.8408 146.238 67.8086 147.042C67.7764 147.75 67.6477 148.619 67.4225 149.648C67.1972 150.662 66.7709 151.764 66.1435 152.955C66.1274 152.955 66.1194 152.963 66.1194 152.979C66.1515 153.542 66.1837 154.073 66.2159 154.571C66.2481 155.07 66.3044 155.529 66.3848 155.947C66.4813 156.558 66.5859 157.057 66.6985 157.443C66.8272 157.813 66.9479 158.111 67.0605 158.336C67.1892 158.561 67.3099 158.722 67.4225 158.819C67.5512 158.915 67.6638 158.971 67.7603 158.988C68.0338 159.068 68.3636 158.979 68.7497 158.722C69.1358 158.449 69.5622 158.038 70.0287 157.491C70.4792 156.96 70.9377 156.269 71.4042 155.416C71.8869 154.547 72.3454 153.654 72.7798 152.737C72.8441 152.609 72.9326 152.528 73.0452 152.496C73.1739 152.448 73.3026 152.456 73.4313 152.52C73.56 152.585 73.6405 152.681 73.6726 152.81C73.7209 152.922 73.7129 153.043 73.6485 153.172C73.182 154.121 72.6993 155.038 72.2006 155.923C71.718 156.808 71.2434 157.532 70.7768 158.095C69.7311 159.349 68.7899 159.977 67.9534 159.977ZM66.5296 144.364C66.4974 144.476 66.4652 144.637 66.4331 144.846C66.4009 145.039 66.3687 145.305 66.3365 145.643C66.2722 146.56 66.2159 147.436 66.1676 148.273C66.1354 149.093 66.1194 149.882 66.1194 150.638C66.5537 149.383 66.795 148.112 66.8433 146.825C66.8755 146.198 66.8514 145.683 66.7709 145.281C66.6905 144.862 66.61 144.557 66.5296 144.364Z" fill="#1C1B1B"/>
<path d="M63.8726 152.52C64.0013 152.584 64.0817 152.681 64.1139 152.809C64.146 152.922 64.13 153.043 64.0656 153.171C63.4543 154.362 62.8751 155.432 62.3281 156.381C61.7811 157.314 61.2743 158.054 60.8078 158.601C59.9712 159.534 59.199 160.001 58.4911 160.001H58.2257C57.7752 159.936 57.3569 159.647 56.9708 159.132C56.6973 158.73 56.448 158.191 56.2227 157.515C56.0136 156.904 55.8286 156.236 55.6677 155.512C55.5229 154.788 55.3862 154.056 55.2575 153.316C55.2414 153.187 55.2253 153.067 55.2092 152.954C55.1931 152.841 55.169 152.729 55.1368 152.616C55.0403 152.841 54.9277 153.139 54.799 153.509C54.6703 153.879 54.5415 154.33 54.4128 154.861C54.2198 155.665 54.0589 156.469 53.9302 157.274C53.8015 158.078 53.7211 158.81 53.6889 159.47C53.6889 159.598 53.6406 159.703 53.5441 159.783C53.4637 159.864 53.3591 159.912 53.2304 159.928C53.1017 159.928 52.9891 159.888 52.8925 159.808C52.796 159.727 52.7397 159.623 52.7236 159.494C52.611 158.448 52.5547 156.775 52.5547 154.474C52.5547 152.174 52.603 149.23 52.6995 145.642C52.6995 145.32 52.7156 145.031 52.7477 144.773C52.7799 144.516 52.8201 144.299 52.8684 144.122C52.9006 143.961 52.9569 143.8 53.0373 143.639C53.1339 143.462 53.2786 143.334 53.4717 143.253C53.7613 143.14 54.0187 143.213 54.2439 143.47C54.4692 143.728 54.6461 144.178 54.7748 144.822C54.9196 145.449 54.9759 146.173 54.9437 146.994C54.9277 147.701 54.8231 148.57 54.63 149.6C54.4531 150.629 54.083 151.748 53.52 152.954V154.474L53.5682 154.305C53.6808 153.887 53.7854 153.509 53.8819 153.171C53.9946 152.833 54.1072 152.536 54.2198 152.278C54.3968 151.908 54.5576 151.643 54.7024 151.482C54.8633 151.305 55.0322 151.201 55.2092 151.168C55.2735 151.168 55.362 151.184 55.4746 151.217C55.6034 151.249 55.724 151.353 55.8366 151.53C55.9171 151.707 55.9814 151.9 56.0297 152.109C56.0619 152.286 56.094 152.463 56.1262 152.64C56.1584 152.801 56.1906 152.97 56.2227 153.147C56.3514 153.871 56.4882 154.587 56.633 155.295C56.7778 155.987 56.9387 156.622 57.1156 157.201C57.5017 158.344 57.9281 158.955 58.3946 159.035C58.7968 159.1 59.3599 158.738 60.0838 157.949C60.5343 157.451 61.0169 156.743 61.5318 155.826C62.0466 154.893 62.6096 153.855 63.221 152.713C63.2853 152.6 63.3738 152.528 63.4864 152.496C63.6151 152.447 63.7438 152.455 63.8726 152.52ZM53.6648 145.666C53.6326 146.471 53.6084 147.235 53.5924 147.959C53.5763 148.683 53.5682 149.383 53.5682 150.058C53.7291 149.447 53.8337 148.876 53.8819 148.345C53.9463 147.798 53.9785 147.323 53.9785 146.921C53.9946 146.455 53.9785 146.06 53.9302 145.739C53.898 145.401 53.8578 145.135 53.8095 144.942L53.7372 144.629C53.7211 144.757 53.705 144.91 53.6889 145.087C53.6728 145.248 53.6648 145.441 53.6648 145.666Z" fill="#1C1B1B"/>
<path d="M54.4286 152.519C54.5573 152.584 54.6377 152.68 54.6699 152.809C54.7181 152.922 54.7101 153.042 54.6458 153.171C54.1792 154.12 53.6885 155.037 53.1737 155.922C52.675 156.791 52.1923 157.507 51.7258 158.07C50.6801 159.325 49.7389 159.952 48.9024 159.952C48.7576 159.952 48.6128 159.928 48.468 159.88C47.4223 159.622 46.7224 158.359 46.3685 156.091C46.0789 154.209 46.0065 151.586 46.1513 148.224L44.4138 148.441C44.2851 148.441 44.1805 148.401 44.1001 148.32C44.0036 148.24 43.9473 148.135 43.9312 148.007C43.9151 147.878 43.9553 147.765 44.0518 147.669C44.1323 147.556 44.2369 147.492 44.3656 147.476L46.1996 147.259C46.2157 146.985 46.2318 146.704 46.2478 146.414C46.2639 146.124 46.2881 145.835 46.3202 145.545C46.3524 145.063 46.4007 144.677 46.465 144.387C46.5455 144.081 46.6259 143.848 46.7064 143.687C46.8029 143.51 46.8994 143.389 46.9959 143.325C47.0925 143.245 47.1809 143.188 47.2614 143.156C47.3257 143.124 47.4303 143.116 47.5751 143.132C47.736 143.148 47.9049 143.253 48.0819 143.446C48.3071 143.735 48.4841 144.194 48.6128 144.821C48.7415 145.449 48.7897 146.149 48.7576 146.921L50.4227 146.704C50.5514 146.688 50.664 146.728 50.7605 146.824C50.8731 146.905 50.9375 147.009 50.9536 147.138C50.9697 147.267 50.9294 147.387 50.8329 147.5C50.7525 147.596 50.6479 147.653 50.5192 147.669L48.6852 147.91C48.6047 148.586 48.4438 149.35 48.2025 150.203C47.9773 151.055 47.6073 151.964 47.0925 152.93C47.0764 152.93 47.0683 152.938 47.0683 152.954C47.1005 153.517 47.1327 154.048 47.1649 154.546C47.197 155.045 47.2533 155.504 47.3338 155.922C47.4303 156.533 47.5349 157.032 47.6475 157.418C47.7762 157.788 47.8969 158.086 48.0095 158.311C48.1382 158.536 48.2588 158.697 48.3715 158.794C48.5002 158.89 48.6128 158.947 48.7093 158.963C48.9828 159.043 49.3126 158.955 49.6987 158.697C50.0848 158.424 50.5111 158.013 50.9777 157.466C51.4282 156.936 51.8947 156.244 52.3773 155.391C52.8761 154.538 53.3426 153.654 53.777 152.737C53.8414 152.608 53.9298 152.527 54.0425 152.495C54.1712 152.447 54.2999 152.455 54.4286 152.519ZM47.2855 145.618C47.2533 145.891 47.2292 146.149 47.2131 146.39C47.2131 146.631 47.2051 146.873 47.189 147.114L47.7682 147.041C47.7682 147.009 47.7682 146.977 47.7682 146.945C47.7842 146.897 47.7923 146.848 47.7923 146.8C47.8245 146.173 47.8003 145.658 47.7199 145.256C47.6395 144.837 47.559 144.532 47.4786 144.339C47.4464 144.451 47.4142 144.612 47.382 144.821C47.3499 145.014 47.3177 145.28 47.2855 145.618ZM47.1407 148.103C47.0925 149.004 47.0683 149.841 47.0683 150.613C47.2131 150.195 47.3338 149.768 47.4303 149.334C47.5268 148.9 47.6073 148.465 47.6716 148.031L47.1407 148.103Z" fill="#1C1B1B"/>
<path d="M47.9537 152.544C48.0824 152.592 48.1709 152.681 48.2191 152.81C48.2674 152.922 48.2594 153.043 48.195 153.172C47.7124 154.298 47.1975 155.335 46.6506 156.285C46.1197 157.218 45.5807 157.966 45.0337 158.529C44.4867 159.092 43.988 159.47 43.5375 159.663C43.1032 159.856 42.7171 159.953 42.3792 159.953C42.2827 159.953 42.1942 159.953 42.1138 159.953C42.0494 159.937 41.977 159.921 41.8966 159.904C41.5909 159.824 41.2531 159.639 40.883 159.349C40.5291 159.06 40.2154 158.537 39.9419 157.781C39.7488 157.202 39.6201 156.486 39.5558 155.633C39.5075 154.764 39.5075 153.871 39.5558 152.954C39.5719 152.826 39.6282 152.713 39.7247 152.617C39.8212 152.52 39.9338 152.48 40.0625 152.496C40.2073 152.512 40.32 152.568 40.4004 152.665C40.4969 152.761 40.5371 152.874 40.5211 153.003C40.4728 153.855 40.4728 154.684 40.5211 155.488C40.5693 156.293 40.6819 156.952 40.8589 157.467C40.9715 157.757 41.1244 158.062 41.3174 158.384C41.5265 158.69 41.792 158.883 42.1138 158.963C42.162 158.979 42.2505 158.987 42.3792 158.987C42.9745 158.987 43.626 158.609 44.3339 157.853C44.8487 157.338 45.3555 156.631 45.8542 155.73C46.369 154.829 46.8597 153.847 47.3263 152.786C47.3745 152.657 47.455 152.568 47.5676 152.52C47.6963 152.472 47.825 152.48 47.9537 152.544ZM39.4834 148.587C39.5156 148.49 39.5316 148.426 39.5316 148.394C39.5316 148.377 39.5236 148.353 39.5075 148.321C39.4914 148.273 39.4753 148.233 39.4592 148.2C39.411 148.072 39.419 147.951 39.4834 147.838C39.5316 147.71 39.6201 147.621 39.7488 147.573C39.8775 147.525 39.9982 147.533 40.1108 147.597C40.2395 147.645 40.328 147.734 40.3763 147.863C40.4567 148.072 40.4969 148.225 40.4969 148.321C40.4969 148.418 40.4808 148.57 40.4487 148.78C40.4165 148.908 40.3521 149.005 40.2556 149.069C40.1752 149.134 40.0786 149.166 39.966 149.166H39.8695C39.7408 149.134 39.6362 149.061 39.5558 148.949C39.4753 148.836 39.4512 148.715 39.4834 148.587Z" fill="#1C1B1B"/>
<path d="M34.2647 159.952C34.2004 159.952 34.1521 159.944 34.1199 159.928C33.5086 159.864 33.034 159.253 32.6962 158.094C32.664 157.933 32.6238 157.764 32.5755 157.587C32.5272 157.41 32.487 157.225 32.4548 157.032C32.2779 157.595 32.0687 158.094 31.8274 158.529C31.5861 158.947 31.3367 159.269 31.0793 159.494C30.8541 159.719 30.645 159.856 30.4519 159.904C30.2588 159.952 30.098 159.96 29.9693 159.928C29.3418 159.864 28.8753 159.253 28.5696 158.094C28.4087 157.547 28.28 156.831 28.1835 155.946C28.087 155.062 28.0146 154.08 27.9663 153.002C27.9663 152.874 28.0065 152.761 28.087 152.665C28.1835 152.568 28.2961 152.52 28.4248 152.52C28.5535 152.504 28.6661 152.544 28.7627 152.64C28.8753 152.737 28.9316 152.85 28.9316 152.978C28.9638 154.008 29.0281 154.949 29.1246 155.802C29.2212 156.654 29.3418 157.338 29.4866 157.853C29.5671 158.126 29.6395 158.335 29.7038 158.48C29.7842 158.625 29.8566 158.738 29.921 158.818C29.9853 158.899 30.0497 158.955 30.114 158.987C30.1945 158.987 30.2991 158.923 30.4278 158.794C30.653 158.601 30.8702 158.287 31.0793 157.853C31.2885 157.418 31.4815 156.92 31.6585 156.357C31.8033 155.89 31.9159 155.424 31.9963 154.957C32.0768 154.474 32.117 154.04 32.117 153.654C32.117 153.573 32.117 153.501 32.117 153.437C32.117 153.356 32.109 153.276 32.0929 153.195C32.0929 152.89 32.2457 152.721 32.5514 152.689C32.6801 152.673 32.7927 152.713 32.8892 152.809C32.9857 152.89 33.0421 152.994 33.0581 153.123C33.0742 153.203 33.0823 153.292 33.0823 153.388C33.0823 153.469 33.0823 153.549 33.0823 153.63C33.1305 154.547 33.1949 155.359 33.2753 156.067C33.3719 156.759 33.4925 157.346 33.6373 157.829C33.766 158.295 33.8867 158.601 33.9993 158.746C34.128 158.891 34.2084 158.971 34.2406 158.987C34.2728 158.987 34.3532 158.947 34.4819 158.866C34.6106 158.786 34.7635 158.601 34.9404 158.311C35.1174 158.038 35.2783 157.716 35.4231 157.346C35.5839 156.96 35.7287 156.558 35.8574 156.139C35.9379 155.818 36.0022 155.52 36.0505 155.247C36.1149 154.957 36.1631 154.684 36.1953 154.426C35.777 154.314 35.4633 154.193 35.2541 154.064C34.7715 153.807 34.4739 153.461 34.3613 153.026C34.2486 152.592 34.2808 152.198 34.4578 151.844C34.6187 151.506 34.8519 151.281 35.1576 151.168C35.4794 151.04 35.8092 151.056 36.147 151.217C36.3723 151.313 36.5975 151.514 36.8227 151.82C37.048 152.126 37.1767 152.64 37.2088 153.364V153.654C37.3375 153.686 37.4582 153.71 37.5708 153.726C37.6995 153.726 37.8282 153.734 37.9569 153.75C38.3752 153.767 38.8498 153.678 39.3807 153.485C39.9116 153.292 40.3862 153.002 40.8045 152.616C40.901 152.52 41.0136 152.479 41.1423 152.496C41.2871 152.496 41.3997 152.544 41.4802 152.64C41.5767 152.737 41.6169 152.858 41.6008 153.002C41.6008 153.131 41.5526 153.236 41.456 153.316C40.9895 153.75 40.4747 154.096 39.9116 154.354C39.3485 154.595 38.7854 154.716 38.2224 154.716C37.8523 154.716 37.4984 154.692 37.1606 154.643C37.0801 155.222 36.9595 155.81 36.7986 156.405C36.6699 156.871 36.509 157.314 36.3159 157.732C36.139 158.15 35.954 158.512 35.7609 158.818C35.2944 159.574 34.7956 159.952 34.2647 159.952ZM35.592 152.061C35.5598 152.061 35.5116 152.077 35.4472 152.109C35.3989 152.126 35.3587 152.174 35.3265 152.254C35.2622 152.383 35.2461 152.544 35.2783 152.737C35.3105 152.93 35.4472 153.091 35.6885 153.22C35.7529 153.252 35.8253 153.292 35.9057 153.34C36.0022 153.372 36.1149 153.405 36.2436 153.437C36.2114 152.664 36.0505 152.214 35.7609 152.085C35.7448 152.085 35.7207 152.085 35.6885 152.085C35.6563 152.069 35.6242 152.061 35.592 152.061Z" fill="#1C1B1B"/>
</svg>
