<svg width="32" height="32" viewBox="0 0 32 32" fill="none" xmlns="http://www.w3.org/2000/svg">
<rect width="32" height="32" rx="16" fill="#111111"/>
<g clip-path="url(#clip0_191_11)">
<path fill-rule="evenodd" clip-rule="evenodd" d="M9 10.5C9 9.67157 9.67157 9 10.5 9H13C13.8284 9 14.5 9.67157 14.5 10.5V21.5C14.5 22.3284 13.8284 23 13 23H10.5C9.67157 23 9 22.3284 9 21.5V10.5ZM19 9C18.1716 9 17.5 9.67157 17.5 10.5V21.5C17.5 22.3284 18.1716 23 19 23H21.5C22.3284 23 23 22.3284 23 21.5V10.5C23 9.67157 22.3284 9 21.5 9H19Z" fill="#D0D0D0"/>
</g>
<defs>
<clipPath id="clip0_191_11">
<rect width="14" height="14" fill="white" transform="translate(9 9)"/>
</clipPath>
</defs>
</svg>
