<svg width="32" height="32" viewBox="0 0 32 32" fill="none" xmlns="http://www.w3.org/2000/svg">
<rect width="32" height="32" rx="16" fill="#111111"/>
<g clip-path="url(#clip0_182_9)">
<path fill-rule="evenodd" clip-rule="evenodd" d="M12.6761 9.01917C12.3804 9.01917 12.0895 9.09455 11.8311 9.23811C11.568 9.37225 11.3459 9.57501 11.1884 9.82504C11.0286 10.0787 10.9413 10.3712 10.9362 10.671L10.9361 21.3396L10.9362 21.3482C10.9413 21.6479 11.0286 21.9405 11.1884 22.1941C11.3459 22.4442 11.568 22.6469 11.8311 22.7811C12.0895 22.9246 12.3804 23 12.6761 23C12.9761 23 13.2709 22.9225 13.5321 22.7749C13.5378 22.7717 13.5435 22.7683 13.5491 22.7648L22.1789 17.4274C22.4406 17.2955 22.6615 17.0945 22.8177 16.846C22.9788 16.5895 23.0644 16.2926 23.0644 15.9896C23.0644 15.6866 22.9788 15.3897 22.8177 15.1331C22.6614 14.8844 22.4401 14.6833 22.1781 14.5514L13.5477 9.25347C13.5425 9.25031 13.5373 9.24724 13.5321 9.24427C13.2709 9.09671 12.9761 9.01917 12.6761 9.01917Z" fill="#D0D0D0"/>
</g>
<defs>
<clipPath id="clip0_182_9">
<rect width="14" height="14" fill="white" transform="translate(9 9)"/>
</clipPath>
</defs>
</svg>
